<?xml version="1.0" encoding="UTF-8"?>
<svg id="Layer_1" data-name="Layer 1" xmlns="http://www.w3.org/2000/svg" viewBox="0 0 40.29 40.29">
  <defs>
    <style>
      .cls-1 {
        fill: #fff;
        stroke-width: 0px;
      }
    </style>
  </defs>
  <path class="cls-1" d="M40.28,1.78C40.17.52,39.62,0,38.35,0h-2.81S28.06,0,25.73.01c-.32,0-.63.07-.93.14-.14.03-.29.07-.66.09-.11-.02-.21-.06-.32-.09-.22-.07-.45-.14-.69-.14C18.04,0,1.72,0,1.72,0,.59,0,0,.6,0,1.73v36.79c0,1.17.6,1.76,1.77,1.76,0,0,16.66,0,21.29,0,.26,0,.5-.07.74-.14.12-.03.23-.07.57-.08l.43.09c.3.07.61.14.93.14,2.25,0,4.5.01,6.75.01h5.41c1.49,0,2.39-.9,2.39-2.39V2.21c0-.14,0-.28,0-.42ZM8.22,4.39h14.85v7.15h-.75v-4.65c0-1.13-.62-1.76-1.75-1.76h-12.36v-.74ZM15.92,10.15h4.6v1.38h-4.6v-1.38ZM15.91,8.3v-1.35h4.59v1.35h-4.59ZM8.22,6.94h5.88v1.35h-.76v-.82h-1.77v.82h-.8v-.83h-1.77v.83h-.78v-1.36ZM6.4,38.48H1.82V1.82h4.58v36.66ZM8.21,10.15h5.91v.15c0,.44,0,.87.06,1.25-.17,0-.84,0-.84,0v-.95h-1.78v-.07s0,.75-.02,1.02h-.4s-.37,0-.37,0v-.96h-1.77v.93h-.78v-1.38ZM8.21,28.75h14.84v7.16h-.73v-4.48c0-1.35-.54-1.9-1.87-1.9h-12.24v-.78ZM15.92,32.69v-1.37h4.59v1.37h-4.59ZM20.5,34.56v1.35h-4.58v-1.35h4.58ZM11.56,31.86v.83h-.81v-.83h-1.77v.84h-.77v-1.37h5.87v1.37h-.77v-.84h-1.77ZM8.22,34.55h5.89v1.35h-.78v-.93h-1.77v.23c0,.22,0,.44-.07.73h-.38s-.34,0-.34,0v-.95h-1.77v.92h-.78v-1.35ZM23.07,38.48h-14.85v-.73h14.85v.73ZM23.07,26.94h-14.86v-.74h14.86v.74ZM20.58,17.96h-12.35v-2.04h14.84v8.46h-.73v-4.65c0-1.14-.62-1.76-1.75-1.76ZM15.9,21.15v-1.36h4.59v1.36h-4.59ZM20.5,22.99v1.39h-4.57v-1.39h4.57ZM14.1,19.78v1.37h-.77v-.93h-1.77v.23c0,.23,0,.45-.05.73h-.4s-.35,0-.35,0v-.96h-1.75v.92h-.78v-1.36h5.88ZM14.11,22.99v1.38h-.78v-.91h-1.77v.92h-.78v-.91h-1.77v.9h-.79v-1.38h5.89ZM23.08,14.1h-14.86v-.74h14.86v.74ZM23.08,2.54h-14.85v-.71h14.85v.71ZM37.72,14.1V4.28c0-1.09-.62-1.72-1.7-1.72h-8.66c-1.06,0-1.69.63-1.69,1.69v31.78c0,1.04.64,1.68,1.67,1.68h8.74c1,0,1.65-.65,1.65-1.66v-9.89h.77v.17s.01,11.5.01,11.5c0,.58-.07.65-.64.65h-12.41q-.55-.06-.55-.61V2.3c0-.42.01-.43.43-.48.16-.02.32-.02.47-.02h1.31s8.61,0,11.13-.01l.26.25c0,.84,0,12.08,0,12.08h-.78ZM38.47,15.91v8.45h-.72v-8.45h.72ZM35.9,4.37v31.53h-8.42V4.37h8.42Z"/>
  <polygon class="cls-1" points="34.34 19.75 29.56 14.96 28.54 15.92 28.39 16.14 33.16 20.92 34.34 19.75"/>
  <polygon class="cls-1" points="34.32 24.21 29.57 19.46 28.41 20.6 33.18 25.37 34.32 24.21"/>
  <polygon class="cls-1" points="28.41 25.1 33.18 29.87 34.35 28.72 29.58 23.94 28.41 25.1"/>
</svg>