<?xml version="1.0" encoding="UTF-8"?>
<svg id="Layer_1" data-name="Layer 1" xmlns="http://www.w3.org/2000/svg" viewBox="0 0 39.72 41.13">
  <defs>
    <style>
      .cls-1 {
        fill: #fff;
        stroke-width: 0px;
      }
    </style>
  </defs>
  <path class="cls-1" d="M39.66,9.29c-.12-.33-.42-.52-.78-.52-.14,0-.29.03-.44.08-.9.33-1.52.8-1.89,1.42l-.26-.11c-.35-.15-.68-.29-1.03-.38-.15-.04-.3-.06-.43-.06-.46,0-.79.26-.87.68-.04.23,0,.43.11.59.15.22.44.36.95.45.6.18.91.42.96.78.07.48.05.97.04,1.46v.43c-1.15.16-1.43.55-1.43,1.8v7.73c0,1.29-.82,2.36-2.07,2.73-.29.08-.54.12-.77.12-.07,0-.15,0-.22-.01.39-.93.28-1.78-.34-2.55.72-1.03.71-1.93-.02-3.03.71-1.12.7-2.07-.03-3.03.72-1.11.71-1.96-.02-3.05.86-1.26.66-2.5-.62-3.68v-1.12s.13-1.34.13-1.34c.94-.44,1.44-1.2,1.45-2.22v-.74s.89,0,.89,0c1-.02,1.8-.69,1.95-1.63.06-.37.06-.75.06-1.12,0-.21,0-.43.01-.64.04-.66-.16-1.23-.56-1.66-.42-.45-1.04-.69-1.76-.69-5.34.01-10.67.02-16,.02H1.95C.89.05.04.91.01,1.96c-.01.58-.01,1.17,0,1.75.02,1.17.89,2.02,2.07,2.03h.8c-.02.85,0,1.71.65,2.39-.65,1.04-.62,2.03.09,2.97-.73,1.13-.72,2.03.03,3.02-.75,1.18-.74,1.91.02,3.04-.72,1.02-.71,2.07.02,3.05-.72,1.06-.71,1.93.03,3.02-.35.45-.53.96-.53,1.52,0,.55.18,1.05.56,1.53-.42.59-.59,1.21-.51,1.8.09.65.5,1.26,1.22,1.87.01.78.02,1.55-.08,2.45-.99.47-1.49,1.29-1.49,2.41v.58h-.85c-1.13.01-2,.87-2.02,1.99,0,.43,0,.85,0,1.28v.27c0,1.37.83,2.19,2.2,2.19h24.55s6.11,0,6.11,0c1.17,0,2-.7,2.11-1.79.08-.7.08-1.43,0-2.15-.11-1.06-.95-1.78-2.07-1.79h-.8c.03-.89,0-1.79-.71-2.47.36-.56.49-1.16.39-1.8l.02.02c3.17-.12,5.47-1.64,6.82-4.53.62-1.33.64-2.76.61-4.11-.02-.91-.59-1.02-.85-1.02-.24,0-.81.1-.84,1v.68c-.02.56-.02,1.11-.13,1.65-.58,2.78-2.87,4.64-5.7,4.64-.37,0-.75-.03-1.13-.1-1.2-.21-2.4-.39-3.61-.57l-1.79-.27-19.69-3.11c-.4-.06-.66-.39-.61-.75.05-.3.34-.54.78-.54,0,0,10.61,1.7,10.61,1.7l14.69,2.33c.27.04.53.06.79.06,2.55,0,4.55-2.02,4.55-4.59v-5.34h1.25v1.21c.01.52.35.88.86.88.48,0,.82-.36.83-.87,0-1.35.01-2.7,0-4.05,0-.72-.55-1.27-1.3-1.31h-.12v-.59c-.01-.61-.02-1.19.01-1.78.04-.63.42-1.04,1.22-1.33.3-.11.51-.29.62-.51.09-.19.09-.41,0-.63ZM32.65,37.09c.62,0,.68.06.68.87v.95c0,.44-.1.53-.55.53H2.36c-.63,0-.66-.03-.66-.68v-1.27c0-.3.11-.4.42-.41l.07-.25h0v.25h30.46ZM5.63,27.15h.02c1.17.17,2.34.35,3.51.54l20.25,3.2c.28.04.5.16.62.34.09.13.12.27.09.43-.06.34-.29.53-.83.53-.03,0-.05,0-.08,0l-17.55-2.78c-.1-.02-.2-.03-.35-.04-.48,0-.83.28-.89.72-.07.45.26.87.74.95.35.06,7.4,1.17,7.4,1.17H6.18v-1.96l1.8.28c.14.02.28.04.5.05.49,0,.81-.26.86-.71.06-.48-.24-.87-.76-.96l-3.08-.49c-.37-.07-.64-.38-.6-.7.04-.34.3-.57.74-.57ZM5.35,33.91l.1-.25h0v.25h23.88c.89,0,1.08.19,1.08,1.06v.4H4.59v-.11c0-.24-.02-.49.01-.72.05-.38.32-.61.75-.63ZM29.07,12.65l.34.07c.38.08.63.38.58.7-.07.47-.48.56-.82.57l-23.58-3.74c-.17-.03-.35-.07-.5-.14-.26-.12-.39-.4-.32-.68.07-.3.3-.51.56-.51h.05c.65.07,1.29.18,1.94.28l21.76,3.45ZM16.46,8.94h12.34v1.95l-12.34-1.95ZM23.62,20.62c.14.19.36.31.64.36l5,.79c.65.1.77.41.8.63.02.17-.02.33-.13.46-.13.14-.32.23-.66.23h-.06c-.46-.07-23.48-3.72-23.48-3.72-.12-.02-.24-.04-.37-.07-.35-.09-.59-.4-.54-.71.06-.37.32-.56.79-.56l15.41,2.43.5.06c.46,0,.81-.28.87-.72.07-.45-.24-.85-.74-.94-.43-.08-.86-.15-1.29-.21l-14.93-2.37c-.42-.07-.68-.37-.64-.73.04-.31.32-.54.79-.54,0,0,3.07.47,4.58.71l19.12,3.03c.29.04.5.15.62.3.09.13.13.3.09.5-.06.39-.38.48-.78.48-.05,0-.09,0-.14,0l-4.75-.74c-.44,0-.78.28-.85.69-.04.24,0,.46.13.63ZM29.83,16.84c-.11.11-.26.18-.54.18-.02,0-3.03-.46-4.51-.7l-19.29-3.06c-.27-.04-.48-.15-.6-.31-.1-.14-.13-.31-.09-.51.05-.3.31-.48.68-.48l.19.02,23.71,3.76c.23.04.62.17.63.64,0,.18-.06.34-.18.46ZM30.08,25.62c-.07.32-.36.51-.8.51l-23.61-3.74-.25-.04c-.42-.11-.63-.41-.55-.8.06-.28.36-.49.68-.49h.11c.47.07,23.4,3.73,23.4,3.73.22.04.42.09.59.16.24.1.51.3.43.67ZM30.38,6.7c-.03.26-.32.5-.65.53,0,0-.18.02-.18.02,0,0-.23-.01-.23-.01H5.61c-.83,0-1.03-.2-1.04-1.03v-.46h10.03c.49-.04.84-.4.83-.86,0-.45-.34-.79-.81-.82H2.3c-.55,0-.61-.06-.61-.62v-1.34c0-.28.12-.39.4-.4v-.25s-.01,0-.01,0l.28.25h30.3c.6,0,.66.06.66.66v1.15c0,.46-.1.56-.57.56h-15.45c-.47.05-.81.43-.78.88.03.45.31.74.76.8h13.11s0,.15,0,.15c0,.28.01.55-.02.81ZM37.51,16.52h-1.18v-.69h1.18v.69Z"/>
</svg>