<svg width="27" height="27" viewBox="0 0 27 27" fill="none" xmlns="http://www.w3.org/2000/svg">
<path fill-rule="evenodd" clip-rule="evenodd" d="M1.36914 0.917422C1.36914 0.582996 1.64025 0.31189 1.97467 0.31189H4.97517C5.3096 0.31189 5.58071 0.582996 5.58071 0.917422V2.96268C5.58071 3.29711 5.3096 3.56821 4.97517 3.56821H1.97467C1.64025 3.56821 1.36914 3.29711 1.36914 2.96268V0.917422ZM19.8213 2.34903C19.8213 1.84739 20.2279 1.44073 20.7296 1.44073H24.8611C25.3627 1.44073 25.7694 1.84739 25.7694 2.34903V4.39429C25.7694 4.5615 25.6338 4.69706 25.4666 4.69706H20.1241C19.9568 4.69706 19.8213 4.5615 19.8213 4.39429V2.34903ZM1.16071 4.69708C0.826282 4.69708 0.555176 4.96819 0.555176 5.30262V8.60697C0.555176 8.9414 0.826282 9.21251 1.16071 9.21251H2.4751V15.936C2.4751 16.7726 2.57339 17.5876 2.75932 18.3699C2.88701 18.9073 3.42612 19.2393 3.96344 19.1116C4.50075 18.9839 4.83282 18.4448 4.70512 17.9075C4.55487 17.2753 4.4751 16.6154 4.4751 15.936V9.21251H5.78967C6.12409 9.21251 6.3952 8.9414 6.3952 8.60697V5.30262C6.3952 4.96819 6.12409 4.69708 5.78967 4.69708H1.16071ZM18.6924 6.04184C18.6924 5.87463 18.8279 5.73907 18.9951 5.73907H26.5958C26.7631 5.73907 26.8986 5.87463 26.8986 6.04184V8.13513C26.8986 9.30562 25.9497 10.2545 24.7792 10.2545H23.7952V15.936C23.7952 21.2842 19.7901 25.6967 14.6486 26.4304C14.2272 26.5009 13.7944 26.5376 13.353 26.5376C13.3191 26.5376 13.2853 26.5373 13.2516 26.5369C13.2127 26.5373 13.1738 26.5375 13.1348 26.5375V26.5346C8.93067 26.419 5.55811 22.9747 5.55811 18.7427C5.55811 14.4377 9.048 10.9478 13.353 10.9478C17.658 10.9478 21.1479 14.4377 21.1479 18.7427C21.1479 18.9061 21.1429 19.0684 21.133 19.2294C21.5594 18.2145 21.7952 17.1019 21.7952 15.936V10.2545H20.8117C19.6413 10.2545 18.6924 9.30562 18.6924 8.13513V6.04184ZM13.2542 24.5367C13.6199 24.5318 13.9804 24.504 14.3343 24.4548C17.0674 23.9887 19.1479 21.6086 19.1479 18.7427C19.1479 15.5422 16.5534 12.9478 13.353 12.9478C10.1526 12.9478 7.55811 15.5422 7.55811 18.7427C7.55811 21.9101 10.0993 24.484 13.2542 24.5367Z" fill="white"/>
</svg>
